<svg xmlns="http://www.w3.org/2000/svg" xmlns:xlink="http://www.w3.org/1999/xlink" version="1.1" id="Layer_1" x="0px" y="0px" width="100px" height="100px" viewBox="5.0 -10.0 100.0 135.0" enable-background="new 0 0 100 100" xml:space="preserve">
<g>
	<path fill="#000000" d="M16.838,32c1.303,0,2.359-1.117,2.359-2.42l-1.336-12.046c0-1.303-1.056-2.534-2.359-2.534h-7.37   c-1.303,0-2.359,1.2-2.359,2.503L4.438,29.508C4.438,30.811,5.493,32,6.796,32h0.736l1.814,15.449C9.346,48.242,9.99,49,10.784,49   h2.065c0.794,0,1.438-0.758,1.438-1.551L16.103,32H16.838z"/>
	<circle fill="#000000" cx="11.817" cy="9.971" r="3.954"/>
	<path fill="#000000" d="M36.335,32c1.303,0,2.358-1.117,2.358-2.42l-1.336-12.046c0-1.303-1.057-2.534-2.359-2.534h-7.37   c-1.303,0-2.358,1.2-2.358,2.503l-1.336,12.005c0,1.302,1.056,2.492,2.359,2.492h0.735l1.815,15.449   c0,0.793,0.644,1.551,1.438,1.551h2.065c0.794,0,1.438-0.758,1.438-1.551L35.6,32H36.335z"/>
	<circle fill="#000000" cx="31.314" cy="9.971" r="3.954"/>
	<path fill="#000000" d="M55.832,32c1.303,0,2.358-1.117,2.358-2.42l-1.336-12.046c0-1.303-1.057-2.534-2.358-2.534h-7.371   c-1.303,0-2.359,1.2-2.359,2.503l-1.336,12.005c0,1.302,1.056,2.492,2.359,2.492h0.736l1.814,15.449   c0,0.793,0.644,1.551,1.438,1.551h2.066c0.793,0,1.438-0.758,1.438-1.551L55.096,32H55.832z"/>
	<circle fill="#000000" cx="50.811" cy="9.971" r="3.954"/>
	<path fill="#000000" d="M74.594,32h0.735c1.303,0,2.358-1.117,2.358-2.42l-1.336-12.046c0-1.303-1.057-2.534-2.359-2.534h-7.37   c-1.303,0-2.358,1.2-2.358,2.503l-1.336,12.005c0,1.302,1.057,2.492,2.358,2.492h0.736l1.813,15.449   c0,0.793,0.645,1.551,1.438,1.551h2.065c0.794,0,1.438-0.758,1.438-1.551L74.594,32z"/>
	<circle fill="#000000" cx="70.308" cy="9.971" r="3.954"/>
	<path fill="#000000" d="M95.383,17.503c0-1.303-1.056-2.503-2.358-2.503h-7.37c-1.303,0-2.359,1.2-2.359,2.503L81.96,29.508   c0,1.302,1.056,2.492,2.358,2.492h0.735l1.814,15.449c0,0.793,0.645,1.551,1.438,1.551h2.065c0.793,0,1.438-0.758,1.438-1.551   L93.625,32h0.736c1.303,0,2.357-1.189,2.357-2.492L95.383,17.503z"/>
	<circle fill="#000000" cx="89.339" cy="9.971" r="3.954"/>
	<path fill="#000000" d="M25.525,63h-7.37c-1.303,0-2.359,0.884-2.359,2.187L14.46,76.851c0,1.302,1.056,2.149,2.358,2.149h0.736   l1.814,15.449c0,0.793,0.645,1.551,1.438,1.551h2.065c0.794,0,1.438-0.758,1.438-1.551L26.126,79h0.735   c1.303,0,2.359-0.934,2.359-2.235l-1.336-11.64C27.884,63.822,26.828,63,25.525,63z"/>
	<circle fill="#000000" cx="21.84" cy="57.339" r="3.955"/>
	<path fill="#000000" d="M45.021,63h-7.37c-1.302,0-2.358,0.884-2.358,2.187l-1.336,11.664c0,1.302,1.056,2.149,2.359,2.149h0.736   l1.814,15.449c0,0.793,0.644,1.551,1.438,1.551h2.065c0.793,0,1.438-0.758,1.438-1.551L45.623,79h0.736   c1.303,0,2.359-0.934,2.359-2.235l-1.336-11.64C47.381,63.822,46.325,63,45.021,63z"/>
	<circle fill="#000000" cx="41.337" cy="57.339" r="3.955"/>
	<path fill="#000000" d="M64.519,63h-7.37c-1.303,0-2.359,0.884-2.359,2.187l-1.336,11.664c0,1.302,1.057,2.149,2.359,2.149h0.735   l1.814,15.449c0,0.793,0.645,1.551,1.438,1.551h2.065c0.794,0,1.438-0.758,1.438-1.551L65.12,79h0.735   c1.303,0,2.358-0.934,2.358-2.235l-1.336-11.64C66.878,63.822,65.821,63,64.519,63z"/>
	<circle fill="#000000" cx="60.834" cy="57.339" r="3.955"/>
	<path fill="#000000" d="M83.551,63h-7.37c-1.303,0-2.359,0.884-2.359,2.187l-1.336,11.664c0,1.302,1.057,2.149,2.359,2.149h0.735   l1.814,15.449c0,0.793,0.645,1.551,1.438,1.551h2.064c0.794,0,1.439-0.758,1.439-1.551L84.151,79h0.736   c1.302,0,2.357-0.934,2.357-2.235l-1.336-11.64C85.909,63.822,84.853,63,83.551,63z"/>
	<circle fill="#000000" cx="79.866" cy="57.339" r="3.955"/>
</g>
<text x="0.0" y="117.5" font-size="5.0" font-weight="bold" font-family="Helvetica Neue, Helvetica, Arial-Unicode, Arial, Sans-serif" fill="#000000">Created by Wilson Joseph</text><text x="0.0" y="122.5" font-size="5.0" font-weight="bold" font-family="Helvetica Neue, Helvetica, Arial-Unicode, Arial, Sans-serif" fill="#000000">from the Noun Project</text></svg>